<svg width="41" height="26" viewBox="0 0 41 26" fill="none" xmlns="http://www.w3.org/2000/svg">
<path fill-rule="evenodd" clip-rule="evenodd" d="M22.7696 1.45703L21.898 5.77197C21.8037 6.23849 21.3937 6.57395 20.9178 6.57395H11.4298C10.9543 6.57395 10.5445 6.90884 10.4498 7.37486L9.93063 9.93058C9.80475 10.5502 10.2783 11.1297 10.9106 11.1297H18.0824C18.7171 11.1297 19.1912 11.7132 19.0612 12.3344L18.4782 15.1212C18.3813 15.5846 17.9728 15.9165 17.4994 15.9165H9.49975C9.02564 15.9165 8.61669 16.2494 8.52053 16.7136L6.81209 24.9618H25.0989C25.3847 24.9618 25.6306 24.7599 25.6862 24.4795C25.8019 23.8966 26.7454 23.7602 27.179 24.1666C28.0969 25.0269 29.398 25.457 31.082 25.457C32.4818 25.457 33.7416 25.1379 34.8615 24.4997C36.0028 23.8614 36.9181 23.0141 37.6072 21.9577C38.3179 20.9013 38.8562 19.7349 39.2223 18.4584C39.5884 17.1599 39.7715 15.8284 39.7715 14.4639C39.7715 12.3291 39.2331 10.6345 38.1563 9.38C37.1011 8.12553 35.6583 7.4983 33.8278 7.4983C32.7258 7.4983 31.8968 7.80143 31.0641 8.28957C30.2829 8.7475 29.3102 8.12972 29.4941 7.24309L30.4449 2.65961C30.5737 2.03886 30.097 1.45703 29.463 1.45703H22.7696ZM33.1817 19.1847C32.4495 20.5052 31.4051 21.1654 30.0484 21.1654H23.0818C22.1989 21.1654 21.5098 20.8903 21.0144 20.3401C20.5191 19.7679 20.2715 18.9976 20.2715 18.0292C20.2715 17.0609 20.4007 16.1255 20.6591 15.2232C20.9175 14.2989 21.3805 13.4735 22.0481 12.7473C22.7157 12.021 23.5341 11.6579 24.5031 11.6579H31.4697C33.3432 11.6579 34.28 12.7363 34.28 14.8931C34.28 16.4116 33.9139 17.8422 33.1817 19.1847Z" fill="white"/>
<path d="M6.81209 24.9618L8.52053 16.7136C8.61669 16.2494 9.02564 15.9165 9.49975 15.9165H17.4994C17.9728 15.9165 18.3813 15.5846 18.4782 15.1212L19.0612 12.3344C19.1912 11.7132 18.7171 11.1297 18.0824 11.1297H10.9106C10.2783 11.1297 9.80475 10.5502 9.93063 9.93058L10.4498 7.37486C10.5445 6.90884 10.9543 6.57395 11.4298 6.57395H20.9178C21.3937 6.57395 21.8037 6.23849 21.898 5.77197L22.7696 1.45703H29.463M6.81209 24.9618H2.00196C1.36742 24.9618 0.891688 24.3864 1.02144 23.7653C1.75341 20.2612 3.93979 9.79478 5.51556 2.2514C5.61237 1.78793 6.0218 1.45703 6.49528 1.45703C15.3529 1.45703 20.7143 1.45703 29.463 1.45703M6.81209 24.9618H25.0989C25.3847 24.9618 25.6306 24.7599 25.6862 24.4795C25.8019 23.8966 26.7454 23.7602 27.179 24.1666C28.0969 25.0269 29.398 25.457 31.082 25.457C32.4818 25.457 33.7416 25.1379 34.8615 24.4997C36.0028 23.8614 36.9181 23.0141 37.6072 21.9577C38.3179 20.9013 38.8562 19.7349 39.2223 18.4584C39.5884 17.1599 39.7715 15.8284 39.7715 14.4639C39.7715 12.3291 39.2331 10.6345 38.1563 9.38C37.1011 8.12553 35.6583 7.4983 33.8278 7.4983C32.7259 7.4983 31.8968 7.80143 31.0641 8.28957C30.2829 8.7475 29.3102 8.12972 29.4941 7.24309M31.4697 11.6579C30.5562 11.6579 29.7766 11.9805 29.131 12.6259C29.0523 12.7046 28.992 12.7994 28.9476 12.9014L26.2152 19.1847C25.483 20.5052 24.4385 21.1654 23.0818 21.1654M31.4697 11.6579C33.3432 11.6579 34.28 12.7363 34.28 14.8931C34.28 16.4116 33.9139 17.8422 33.1817 19.1847C32.4495 20.5052 31.4051 21.1654 30.0484 21.1654H23.0818M31.4697 11.6579H24.5031C23.5341 11.6579 22.7157 12.021 22.0481 12.7473C21.3805 13.4735 20.9175 14.2989 20.6591 15.2232C20.4007 16.1255 20.2715 17.0609 20.2715 18.0292C20.2715 18.9976 20.5191 19.7679 21.0144 20.3401C21.5098 20.8903 22.1989 21.1654 23.0818 21.1654M29.4941 7.24309C29.7748 5.8901 30.129 4.18282 30.4449 2.65961M29.4941 7.24309L30.4449 2.65961M30.4449 2.65961C30.5737 2.03886 30.097 1.45703 29.463 1.45703" stroke="white"/>
</svg>
