<svg width="1646" height="286" viewBox="0 0 1646 286" fill="none" xmlns="http://www.w3.org/2000/svg">
<path d="M212.523 4.30933C217.619 4.30933 221.416 9.00967 220.344 13.9913L213.475 45.9354C212.682 49.6212 209.423 52.2534 205.653 52.2534H107.988C104.25 52.2534 101.011 54.8413 100.185 58.4865L94.1424 85.1722C93.0091 90.1767 96.8136 94.9391 101.945 94.9391H177.972C183.092 94.9391 186.894 99.681 185.781 104.678L179.356 133.529C178.541 137.188 175.295 139.79 171.547 139.79H88.3702C84.6157 139.79 81.3663 142.401 80.5579 146.067L64.6379 218.265C63.8294 221.932 60.5801 224.543 56.8256 224.543H12.9745C7.85602 224.543 4.05415 219.802 5.16527 214.806L50.5834 10.5727C51.3973 6.91296 54.6435 4.30933 58.3926 4.30933H212.523Z" fill="#0A66C2"/>
<path d="M361.013 64.9354C366.124 64.9354 369.925 69.6628 368.826 74.6546L337.226 218.262C336.419 221.93 333.169 224.543 329.413 224.543H287.988C285.59 224.543 283.804 222.328 284.312 219.983C285.178 215.995 278.97 212.889 275.784 215.44C264.339 224.601 250.097 229.182 233.058 229.182C218.021 229.182 205.885 225.264 196.648 217.428C187.411 209.592 182.793 199.282 182.793 186.497C182.793 179.692 183.867 171.34 186.015 161.442L205.897 71.2138C206.706 67.5469 209.955 64.9354 213.71 64.9354H252.435C257.544 64.9354 261.343 69.6588 260.249 74.6491L243.047 153.091C241.328 161.751 240.469 167.835 240.469 171.34C240.469 176.496 242.295 180.517 245.946 183.404C249.813 186.291 254.861 187.734 261.09 187.734C270.112 187.734 277.738 184.538 283.968 178.145C290.197 171.753 294.708 162.576 297.5 150.616L315.12 71.2025C315.933 67.5409 319.18 64.9354 322.931 64.9354H361.013Z" fill="#0A66C2"/>
<path d="M431.155 64.9354C433.908 64.9354 435.939 67.5062 435.301 70.1842C434.276 74.4887 440.213 77.8096 443.751 75.1518C456.658 65.4539 471.551 60.6049 488.427 60.6049C503.464 60.6049 515.493 64.4198 524.515 72.0496C533.752 79.6794 538.37 89.7838 538.37 102.363C538.37 109.992 537.296 118.653 535.148 128.345L515.269 218.269C514.459 221.934 511.21 224.543 507.457 224.543H468.449C463.326 224.543 459.524 219.795 460.642 214.796L479.083 132.366C479.942 128.861 480.372 124.84 480.372 120.303C480.372 114.323 478.546 109.786 474.894 106.693C471.457 103.394 466.409 101.744 459.75 101.744C450.299 101.744 442.351 104.94 435.907 111.333C429.462 117.519 424.951 126.489 422.374 138.243L404.746 218.264C403.938 221.931 400.689 224.543 396.934 224.543H358.558C353.441 224.543 349.639 219.804 350.749 214.808L382.639 71.2011C383.452 67.5402 386.699 64.9354 390.449 64.9354H431.155Z" fill="#0A66C2"/>
<path d="M619.509 4.30933C624.622 4.30933 628.423 9.04112 627.321 14.0345L618.812 52.5629C617.048 60.5496 629.071 67.8403 636.739 64.9921C644.057 62.2735 652.052 60.9142 660.723 60.9142C678.982 60.9142 693.374 66.7912 703.899 78.5453C712.728 88.207 717.928 100.655 719.5 115.89C719.84 119.19 720.01 122.619 720.01 126.18C720.01 138.965 718.184 151.441 714.532 163.607C713.75 166.17 712.889 168.685 711.948 171.153C708.5 180.204 703.992 188.618 698.422 196.395C691.548 206.293 682.419 214.232 671.034 220.212C659.864 226.192 647.297 229.182 633.335 229.182C616.295 229.182 603.187 225.035 594.01 216.741C589.728 212.871 580.743 214.196 579.551 219.844C578.973 222.583 576.556 224.543 573.756 224.543H536.013C530.894 224.543 527.092 219.802 528.203 214.806L573.622 10.5727C574.435 6.91296 577.682 4.30933 581.431 4.30933H619.509ZM637.201 99.8881C627.535 99.8881 619.372 103.291 612.713 110.096C606.054 116.901 601.436 124.633 598.858 133.294C596.28 141.749 594.992 150.513 594.992 159.586C594.992 168.659 597.462 175.877 602.403 181.238C607.343 186.394 614.217 188.971 623.024 188.971C636.557 188.971 646.975 182.785 654.279 170.412C661.582 157.833 665.234 144.43 665.234 130.201C665.234 109.992 655.89 99.8881 637.201 99.8881Z" fill="#0A66C2"/>
<path d="M1135.2 4.30933C1140.32 4.30933 1144.12 9.05301 1143.01 14.0507L1125.32 93.3568C1123.61 101.02 1132.82 106.303 1138.57 100.963L1175.1 67.0707C1176.58 65.6981 1178.52 64.9354 1180.54 64.9354H1221.96C1229.41 64.9354 1232.82 74.2231 1227.13 79.039L1174.2 123.891C1171.51 126.169 1170.63 129.938 1172.03 133.172L1206.72 213.366C1209.01 218.648 1205.13 224.543 1199.38 224.543H1157.45C1154.13 224.543 1151.16 222.501 1149.98 219.409L1131.07 170.129C1129.12 165.069 1122.82 163.364 1118.59 166.757L1109.67 173.916C1108.25 175.052 1107.27 176.635 1106.87 178.405L1097.93 218.293C1097.11 221.946 1093.87 224.543 1090.12 224.543H1052.37C1047.25 224.543 1043.45 219.802 1044.56 214.806L1089.98 10.5727C1090.79 6.91296 1094.04 4.30933 1097.79 4.30933H1135.2Z" fill="#0A66C2"/>
<path d="M1282.77 64.9354C1287.88 64.9354 1291.68 69.6628 1290.58 74.6546L1258.98 218.262C1258.17 221.93 1254.92 224.543 1251.17 224.543H1212.77C1207.66 224.543 1203.86 219.815 1204.96 214.823L1236.56 71.2161C1237.37 67.5481 1240.62 64.9354 1244.37 64.9354H1282.77ZM1296.24 4C1301.37 4 1305.17 8.76048 1304.04 13.7643L1298.64 37.6661C1297.81 41.3126 1294.57 43.9018 1290.84 43.9018H1252.46C1247.33 43.9018 1243.53 39.1413 1244.66 34.1376L1250.07 10.2357C1250.89 6.58924 1254.13 4 1257.87 4H1296.24Z" fill="#0A66C2"/>
<path d="M1352.91 64.9354C1355.67 64.9354 1357.7 67.5062 1357.06 70.1842C1356.03 74.4887 1361.97 77.8097 1365.51 75.1518C1378.42 65.4539 1393.31 60.6049 1410.19 60.6049C1425.22 60.6049 1437.25 64.4198 1446.27 72.0496C1455.51 79.6794 1460.13 89.7838 1460.13 102.363C1460.13 109.992 1459.05 118.653 1456.91 128.345L1437.03 218.269C1436.22 221.934 1432.97 224.543 1429.22 224.543H1390.21C1385.08 224.543 1381.28 219.795 1382.4 214.796L1400.84 132.366C1401.7 128.861 1402.13 124.84 1402.13 120.303C1402.13 114.323 1400.3 109.786 1396.65 106.693C1393.22 103.394 1388.17 101.744 1381.51 101.744C1372.06 101.744 1364.11 104.94 1357.67 111.333C1351.22 117.519 1346.71 126.489 1344.13 138.243L1326.5 218.264C1325.7 221.931 1322.45 224.543 1318.69 224.543H1280.32C1275.2 224.543 1271.4 219.804 1272.51 214.808L1304.4 71.2011C1305.21 67.5402 1308.46 64.9354 1312.21 64.9354H1352.91Z" fill="#0A66C2"/>
<path d="M1633.02 64.9354C1638.14 64.9354 1641.94 69.6793 1640.83 74.6771L1609.81 213.717C1604.44 237.637 1594.99 254.856 1581.46 265.372C1568.14 276.095 1547.09 281.457 1518.3 281.457C1494.03 281.457 1475.23 277.126 1461.92 268.466C1448.81 260.011 1442.26 247.948 1442.26 232.276C1442.26 230.439 1443.87 229.182 1445.7 229.182H1489.54C1493.76 229.182 1497.04 232.56 1498.53 236.504C1501.67 244.82 1509.55 248.979 1522.17 248.979C1533.56 248.979 1541.4 245.989 1545.69 240.008C1550.2 234.235 1553.96 225.264 1556.97 213.098C1557.92 209.299 1552.24 206.049 1548.96 208.178C1539.75 214.139 1528.68 217.119 1515.73 217.119C1496.82 217.119 1481.68 211.345 1470.29 199.797C1459.12 188.249 1453.54 172.784 1453.54 153.4C1453.54 137.522 1456.55 122.674 1462.56 108.858C1468.79 95.0422 1478.24 83.5975 1490.92 74.5242C1503.59 65.2447 1518.41 60.6049 1535.38 60.6049C1547.41 60.6049 1557.4 62.667 1565.35 66.7912C1568.7 68.5293 1571.82 70.7434 1574.71 73.4336C1579.25 77.6545 1587.86 76.2366 1589.26 70.1995C1589.97 67.1177 1592.72 64.9354 1595.88 64.9354H1633.02ZM1547.3 98.6509C1534.41 98.6509 1524.43 104.115 1517.34 115.045C1510.25 125.768 1506.7 137.728 1506.7 150.925C1506.7 160.411 1509.17 167.835 1514.11 173.196C1519.27 178.558 1526.25 181.238 1535.06 181.238C1546.44 181.238 1556 176.186 1563.74 166.082C1571.47 155.771 1575.34 142.986 1575.34 127.727C1575.34 119.066 1572.86 112.055 1567.92 106.693C1563.2 101.332 1556.32 98.6509 1547.3 98.6509Z" fill="#0A66C2"/>
<path d="M791.074 229.492C820.932 229.492 843.001 224.451 862.283 201.653C868.497 194.306 870.63 189.131 875.121 180.62C889.234 153.877 882.601 132.902 897.132 106.384C901.104 99.136 903.076 94.8004 908.357 88.4434C927.513 65.3868 950.245 60.6049 979.889 60.6049M791.074 229.492C766.8 229.492 747.36 223.512 732.753 211.551C721.103 201.869 714.167 188.403 711.948 171.153M791.074 229.492H961.2C991.059 229.492 1014.8 220.212 1032.41 201.653C1050.24 183.094 1059.15 159.483 1059.15 130.82C1059.15 107.93 1051.96 90.5055 1037.56 78.5453C1023.17 66.585 1003.95 60.6049 979.889 60.6049M979.889 60.6049H809.762C780.119 60.6049 756.275 69.8844 738.231 88.4434C730.2 96.6119 723.956 105.761 719.5 115.89M719.5 115.89C719.84 119.19 720.01 122.619 720.01 126.18C720.01 138.965 718.184 151.441 714.532 163.607C713.75 166.17 712.889 168.685 711.948 171.153M719.5 115.89C713.943 128.519 711.165 142.672 711.165 158.349C711.165 162.827 711.426 167.095 711.948 171.153M719.5 115.89C717.928 100.655 712.728 88.207 703.899 78.5453C693.374 66.7912 678.982 60.9142 660.723 60.9142C652.052 60.9142 644.057 62.2735 636.739 64.9921C629.071 67.8403 617.048 60.5496 618.812 52.5629L627.321 14.0345C628.423 9.04112 624.623 4.30933 619.509 4.30933H581.431C577.682 4.30933 574.435 6.91296 573.622 10.5727L528.203 214.806C527.092 219.802 530.894 224.543 536.013 224.543H573.756C576.556 224.543 578.973 222.583 579.551 219.844V219.844C580.743 214.196 589.728 212.871 594.01 216.741C603.187 225.035 616.295 229.182 633.335 229.182C647.297 229.182 659.864 226.192 671.034 220.212C682.419 214.232 691.548 206.293 698.422 196.395C703.992 188.618 708.5 180.204 711.948 171.153M233.058 229.182C250.097 229.182 264.339 224.601 275.784 215.44C278.97 212.889 285.178 215.995 284.313 219.983V219.983C283.804 222.328 285.59 224.543 287.988 224.543H329.413C333.169 224.543 336.419 221.93 337.226 218.262L368.826 74.6546C369.925 69.6628 366.124 64.9354 361.013 64.9354H322.931C319.18 64.9354 315.933 67.5409 315.12 71.2025L297.5 150.616C294.708 162.576 290.197 171.753 283.968 178.145C277.738 184.538 270.112 187.734 261.09 187.734C254.861 187.734 249.813 186.291 245.946 183.404C242.295 180.517 240.469 176.496 240.469 171.34C240.469 167.835 241.328 161.751 243.047 153.091L260.249 74.6491C261.343 69.6588 257.544 64.9354 252.435 64.9354H213.71C209.955 64.9354 206.706 67.5469 205.897 71.2138L186.015 161.442C183.867 171.34 182.793 179.692 182.793 186.497C182.793 199.282 187.411 209.592 196.648 217.428C205.885 225.264 218.021 229.182 233.058 229.182ZM488.427 60.6049C471.551 60.6049 456.658 65.4539 443.751 75.1518C440.213 77.8096 434.276 74.4887 435.301 70.1842V70.1842C435.939 67.5062 433.908 64.9354 431.155 64.9354H390.449C386.699 64.9354 383.452 67.5402 382.639 71.2011L350.749 214.808C349.639 219.804 353.441 224.543 358.558 224.543H396.934C400.689 224.543 403.938 221.931 404.746 218.264L422.374 138.243C424.951 126.489 429.462 117.519 435.907 111.333C442.351 104.94 450.299 101.744 459.75 101.744C466.409 101.744 471.457 103.394 474.894 106.693C478.546 109.786 480.372 114.323 480.372 120.303C480.372 124.84 479.942 128.861 479.083 132.366L460.642 214.796C459.524 219.795 463.326 224.543 468.449 224.543H507.457C511.21 224.543 514.459 221.934 515.269 218.269L535.148 128.345C537.296 118.653 538.37 109.992 538.37 102.363C538.37 89.7838 533.752 79.6794 524.515 72.0496C515.493 64.4198 503.464 60.6049 488.427 60.6049ZM637.201 99.8881C627.535 99.8881 619.372 103.291 612.713 110.096C606.054 116.901 601.436 124.633 598.858 133.294C596.28 141.749 594.992 150.513 594.992 159.586C594.992 168.659 597.462 175.877 602.403 181.238C607.343 186.394 614.217 188.971 623.024 188.971C636.557 188.971 646.975 182.785 654.279 170.412C661.582 157.833 665.234 144.43 665.234 130.201C665.234 109.992 655.89 99.8881 637.201 99.8881ZM1410.19 60.6049C1393.31 60.6049 1378.42 65.4539 1365.51 75.1518C1361.97 77.8097 1356.03 74.4887 1357.06 70.1842V70.1842C1357.7 67.5062 1355.67 64.9354 1352.91 64.9354H1312.21C1308.46 64.9354 1305.21 67.5402 1304.4 71.2011L1272.51 214.808C1271.4 219.804 1275.2 224.543 1280.32 224.543H1318.69C1322.45 224.543 1325.7 221.931 1326.5 218.264L1344.13 138.243C1346.71 126.489 1351.22 117.519 1357.67 111.333C1364.11 104.94 1372.06 101.744 1381.51 101.744C1388.17 101.744 1393.22 103.394 1396.65 106.693C1400.3 109.786 1402.13 114.323 1402.13 120.303C1402.13 124.84 1401.7 128.861 1400.84 132.366L1382.4 214.796C1381.28 219.795 1385.08 224.543 1390.21 224.543H1429.22C1432.97 224.543 1436.22 221.934 1437.03 218.269L1456.91 128.345C1459.05 118.653 1460.13 109.992 1460.13 102.363C1460.13 89.7838 1455.51 79.6794 1446.27 72.0496C1437.25 64.4198 1425.22 60.6049 1410.19 60.6049ZM1609.81 213.717L1640.83 74.6771C1641.94 69.6793 1638.14 64.9354 1633.02 64.9354H1595.88C1592.72 64.9354 1589.97 67.1177 1589.26 70.1995V70.1995C1587.86 76.2366 1579.25 77.6545 1574.71 73.4336C1571.82 70.7434 1568.7 68.5293 1565.35 66.7912C1557.4 62.667 1547.41 60.6049 1535.38 60.6049C1518.41 60.6049 1503.59 65.2447 1490.92 74.5242C1478.24 83.5975 1468.79 95.0422 1462.56 108.858C1456.55 122.674 1453.54 137.522 1453.54 153.4C1453.54 172.784 1459.12 188.25 1470.29 199.797C1481.68 211.345 1496.82 217.119 1515.73 217.119C1528.68 217.119 1539.75 214.139 1548.96 208.178C1552.24 206.049 1557.92 209.299 1556.97 213.098V213.098C1553.96 225.264 1550.2 234.235 1545.69 240.008C1541.4 245.989 1533.56 248.979 1522.17 248.979C1509.55 248.979 1501.67 244.82 1498.53 236.504C1497.04 232.56 1493.76 229.182 1489.54 229.182H1445.7C1443.87 229.182 1442.26 230.439 1442.26 232.276V232.276C1442.26 247.948 1448.81 260.011 1461.92 268.466C1475.23 277.126 1494.03 281.457 1518.3 281.457C1547.09 281.457 1568.14 276.095 1581.46 265.372C1594.99 254.856 1604.44 237.637 1609.81 213.717ZM1547.3 98.6509C1534.41 98.6509 1524.43 104.115 1517.34 115.045C1510.25 125.768 1506.7 137.728 1506.7 150.925C1506.7 160.411 1509.17 167.835 1514.11 173.196C1519.27 178.558 1526.25 181.238 1535.06 181.238C1546.44 181.238 1556 176.186 1563.74 166.082C1571.47 155.771 1575.34 142.986 1575.34 127.727C1575.34 119.066 1572.87 112.055 1567.92 106.693C1563.2 101.332 1556.32 98.6509 1547.3 98.6509ZM1250.07 10.2357L1244.66 34.1376C1243.53 39.1414 1247.33 43.9018 1252.46 43.9018H1290.84C1294.57 43.9018 1297.81 41.3126 1298.64 37.6661L1304.04 13.7643C1305.17 8.76048 1301.37 4 1296.24 4H1257.87C1254.13 4 1250.89 6.58924 1250.07 10.2357ZM1052.37 224.543H1090.12C1093.87 224.543 1097.11 221.946 1097.93 218.293L1106.87 178.405C1107.27 176.635 1108.25 175.052 1109.67 173.916L1118.59 166.757C1122.82 163.364 1129.12 165.069 1131.07 170.129L1149.98 219.409C1151.16 222.501 1154.13 224.543 1157.45 224.543H1199.38C1205.13 224.543 1209.01 218.648 1206.72 213.366L1172.03 133.172C1170.63 129.938 1171.51 126.169 1174.2 123.891L1227.13 79.0391C1232.82 74.2231 1229.41 64.9354 1221.96 64.9354H1180.54C1178.52 64.9354 1176.58 65.6981 1175.1 67.0707L1138.57 100.963C1132.82 106.303 1123.61 101.02 1125.32 93.3568L1143.01 14.0507C1144.12 9.05301 1140.32 4.30933 1135.2 4.30933H1097.79C1094.04 4.30933 1090.79 6.91296 1089.98 10.5727L1044.56 214.806C1043.45 219.802 1047.25 224.543 1052.37 224.543ZM1236.56 71.2161L1204.96 214.823C1203.86 219.815 1207.66 224.543 1212.77 224.543H1251.17C1254.92 224.543 1258.17 221.93 1258.98 218.262L1290.58 74.6546C1291.68 69.6628 1287.88 64.9354 1282.77 64.9354H1244.37C1240.62 64.9354 1237.37 67.5481 1236.56 71.2161ZM50.5834 10.5727L5.16527 214.806C4.05415 219.802 7.85602 224.543 12.9745 224.543H56.8256C60.5801 224.543 63.8294 221.932 64.6379 218.265L80.5579 146.067C81.3663 142.401 84.6157 139.79 88.3702 139.79H171.547C175.295 139.79 178.541 137.188 179.356 133.529L185.781 104.678C186.894 99.681 183.092 94.9391 177.972 94.9391H101.945C96.8136 94.9391 93.0091 90.1766 94.1424 85.1722L100.185 58.4865C101.011 54.8413 104.25 52.2534 107.988 52.2534H205.653C209.423 52.2534 212.682 49.6212 213.475 45.9354L220.344 13.9913C221.416 9.00967 217.619 4.30933 212.523 4.30933H58.3926C54.6435 4.30933 51.3973 6.91296 50.5834 10.5727Z" stroke="#0A66C2" stroke-width="8"/>
</svg>
