<svg width="195" height="26" viewBox="0 0 195 26" fill="none" xmlns="http://www.w3.org/2000/svg">
<path fill-rule="evenodd" clip-rule="evenodd" d="M22.7696 1L21.898 5.31493C21.8037 5.78146 21.3937 6.11692 20.9178 6.11692H11.4298C10.9543 6.11692 10.5445 6.45181 10.4498 6.91783L9.93063 9.47354C9.80475 10.0932 10.2783 10.6726 10.9106 10.6726H18.0824C18.7171 10.6726 19.1912 11.2562 19.0612 11.8774L18.4782 14.6642C18.3813 15.1275 17.9728 15.4594 17.4994 15.4594H9.49975C9.02564 15.4594 8.61669 15.7923 8.52053 16.2566L6.81209 24.5048H25.0989C25.3847 24.5048 25.6306 24.3028 25.6862 24.0225C25.8019 23.4396 26.7454 23.3032 27.179 23.7096C28.0969 24.5699 29.398 25 31.082 25C32.4818 25 33.7416 24.6809 34.8615 24.0426C36.0028 23.4044 36.9181 22.5571 37.6072 21.5007C38.3179 20.4443 38.8562 19.2779 39.2223 18.0014C39.5884 16.7029 39.7715 15.3714 39.7715 14.0069C39.7715 11.8721 39.2331 10.1774 38.1563 8.92297C37.1011 7.6685 35.6583 7.04127 33.8278 7.04127C32.7258 7.04127 31.8968 7.34439 31.0641 7.83254C30.2829 8.29047 29.3102 7.67269 29.4941 6.78606L30.4449 2.20258C30.5737 1.58183 30.097 1 29.463 1H22.7696ZM33.1817 18.7276C32.4495 20.0481 31.4051 20.7084 30.0484 20.7084H23.0818C22.1989 20.7084 21.5098 20.4333 21.0144 19.8831C20.5191 19.3109 20.2715 18.5406 20.2715 17.5722C20.2715 16.6039 20.4007 15.6685 20.6591 14.7662C20.9175 13.8418 21.3805 13.0165 22.0481 12.2902C22.7157 11.564 23.5341 11.2008 24.5031 11.2008H31.4697C33.3432 11.2008 34.28 12.2792 34.28 14.436C34.28 15.9546 33.9139 17.3851 33.1817 18.7276Z" fill="#0A66C2"/>
<path d="M6.81209 24.5048L8.52053 16.2566C8.61669 15.7923 9.02564 15.4594 9.49975 15.4594H17.4994C17.9728 15.4594 18.3813 15.1275 18.4782 14.6642L19.0612 11.8774C19.1912 11.2562 18.7171 10.6726 18.0824 10.6726H10.9106C10.2783 10.6726 9.80475 10.0932 9.93063 9.47354L10.4498 6.91783C10.5445 6.45181 10.9543 6.11692 11.4298 6.11692H20.9178C21.3937 6.11692 21.8037 5.78146 21.898 5.31493L22.7696 1H29.463M6.81209 24.5048H2.00196C1.36742 24.5048 0.891688 23.9294 1.02144 23.3082C1.75341 19.8042 3.93979 9.33774 5.51556 1.79437C5.61237 1.3309 6.0218 1 6.49528 1C15.3529 1 20.7143 1 29.463 1M6.81209 24.5048H25.0989C25.3847 24.5048 25.6306 24.3028 25.6862 24.0225C25.8019 23.4396 26.7454 23.3032 27.179 23.7096C28.0969 24.5699 29.398 25 31.082 25C32.4818 25 33.7416 24.6809 34.8615 24.0426C36.0028 23.4044 36.9181 22.5571 37.6072 21.5007C38.3179 20.4443 38.8562 19.2779 39.2223 18.0014C39.5884 16.7029 39.7715 15.3714 39.7715 14.0069C39.7715 11.8721 39.2331 10.1774 38.1563 8.92297C37.1011 7.6685 35.6583 7.04127 33.8278 7.04127C32.7259 7.04127 31.8968 7.34439 31.0641 7.83254C30.2829 8.29047 29.3102 7.67269 29.4941 6.78606M31.4697 11.2008C30.5562 11.2008 29.7766 11.5235 29.131 12.1688C29.0523 12.2475 28.992 12.3423 28.9476 12.4444L26.2152 18.7276C25.483 20.0481 24.4385 20.7084 23.0818 20.7084M31.4697 11.2008C33.3432 11.2008 34.28 12.2792 34.28 14.436C34.28 15.9546 33.9139 17.3851 33.1817 18.7276C32.4495 20.0481 31.4051 20.7084 30.0484 20.7084H23.0818M31.4697 11.2008H24.5031C23.5341 11.2008 22.7157 11.564 22.0481 12.2902C21.3805 13.0165 20.9175 13.8418 20.6591 14.7662C20.4007 15.6685 20.2715 16.6039 20.2715 17.5722C20.2715 18.5406 20.5191 19.3109 21.0144 19.8831C21.5098 20.4333 22.1989 20.7084 23.0818 20.7084M29.4941 6.78606C29.7748 5.43307 30.129 3.72579 30.4449 2.20258M29.4941 6.78606L30.4449 2.20258M30.4449 2.20258C30.5737 1.58183 30.097 1 29.463 1" stroke="#0A66C2"/>
<path d="M69.5626 1.02676C70.1998 1.02676 70.6744 1.61468 70.5401 2.23753L70.0772 4.38469C69.9779 4.84516 69.5707 5.17391 69.0996 5.17391H61.1207C60.6537 5.17391 60.2489 5.49711 60.1455 5.9525L59.7613 7.64481C59.6192 8.27052 60.0948 8.86622 60.7365 8.86622H66.5633C67.2035 8.86622 67.6788 9.45936 67.5393 10.0841L67.1196 11.9637C67.0175 12.4208 66.6119 12.7458 66.1436 12.7458H59.4208C58.9517 12.7458 58.5456 13.0719 58.4444 13.53L57.1703 19.2928C57.0691 19.7508 56.663 20.0769 56.1939 20.0769H53.019C52.379 20.0769 51.9037 19.484 52.043 18.8593L55.8445 1.80914C55.9464 1.35193 56.3521 1.02676 56.8205 1.02676H69.5626Z" fill="#0A66C2"/>
<path d="M82.4385 6.2709C83.0776 6.2709 83.5527 6.86223 83.415 7.48634L80.8103 19.2924C80.7092 19.7506 80.3031 20.0769 79.8338 20.0769H76.4867C76.2789 20.0769 76.1242 19.8849 76.1684 19.6818C76.2435 19.3365 75.7066 19.0673 75.4305 19.288C74.4376 20.0815 73.2019 20.4783 71.7232 20.4783C70.4192 20.4783 69.3666 20.1394 68.5655 19.4615C67.7645 18.7837 67.364 17.8919 67.364 16.786C67.364 16.1973 67.4571 15.4749 67.6434 14.6187L69.3144 7.05518C69.4156 6.59706 69.8217 6.2709 70.2909 6.2709H73.0223C73.6611 6.2709 74.1362 6.86172 73.999 7.48565L72.5895 13.8963C72.4404 14.6455 72.3659 15.1717 72.3659 15.4749C72.3659 15.9208 72.5242 16.2687 72.8409 16.5184C73.1763 16.7681 73.6141 16.893 74.1543 16.893C74.9367 16.893 75.5981 16.6165 76.1383 16.0635C76.6786 15.5106 77.0698 14.7168 77.3119 13.6823L78.7865 7.05376C78.8882 6.59632 79.294 6.2709 79.7626 6.2709H82.4385Z" fill="#0A66C2"/>
<path d="M88.9036 6.2709C89.142 6.2709 89.3179 6.49369 89.2625 6.72564C89.1736 7.09821 89.687 7.38599 89.9934 7.15617C91.1133 6.31627 92.4055 5.89632 93.87 5.89632C95.1741 5.89632 96.2173 6.22631 96.9997 6.88629C97.8008 7.54627 98.2013 8.42029 98.2013 9.50836C98.2013 10.1683 98.1082 10.9175 97.9219 11.7559L96.2513 19.2933C96.1498 19.7511 95.7439 20.0769 95.2749 20.0769H92.5204C91.8798 20.0769 91.4044 19.4831 91.5446 18.8581L93.0597 12.1037C93.1342 11.8004 93.1714 11.4526 93.1714 11.0602C93.1714 10.5429 93.0131 10.1505 92.6964 9.88294C92.3983 9.59755 91.9605 9.45485 91.383 9.45485C90.5633 9.45485 89.8741 9.73133 89.3152 10.2843C88.7563 10.8194 88.3651 11.5953 88.1415 12.612L86.6661 19.2926C86.5649 19.7507 86.1588 20.0769 85.6896 20.0769H82.9895C82.3496 20.0769 81.8744 19.4842 82.0134 18.8596L84.642 7.05358C84.7438 6.59623 85.1495 6.2709 85.6181 6.2709H88.9036Z" fill="#0A66C2"/>
<path d="M104.856 1.02676C105.496 1.02676 105.971 1.61862 105.832 2.24293L105.424 4.08711C105.203 5.08494 106.821 6.14794 107.831 5.99474C108.146 5.94697 108.473 5.92308 108.812 5.92308C110.396 5.92308 111.644 6.43144 112.557 7.44816C113.322 8.2839 113.773 9.36068 113.91 10.6785C113.939 10.9639 113.954 11.2606 113.954 11.5686C113.954 12.6745 113.796 13.7536 113.479 14.806C113.411 15.0277 113.336 15.2453 113.255 15.4588C112.956 16.2416 112.565 16.9694 112.082 17.6421C111.486 18.4983 110.694 19.1851 109.707 19.7023C108.738 20.2196 107.648 20.4783 106.437 20.4783C104.958 20.4783 103.821 20.1191 103.025 19.4008C102.654 19.0658 101.876 19.1806 101.773 19.6698C101.723 19.9071 101.513 20.0769 101.271 20.0769H98.3793C97.7393 20.0769 97.264 19.484 97.4033 18.8593L101.205 1.80914C101.307 1.35193 101.712 1.02676 102.181 1.02676H104.856ZM106.772 9.29431C105.934 9.29431 105.226 9.58863 104.649 10.1773C104.071 10.7659 103.671 11.4348 103.447 12.1839C103.224 12.9153 103.112 13.6734 103.112 14.4582C103.112 15.243 103.326 15.8673 103.754 16.3311C104.183 16.777 104.779 17 105.543 17C106.717 17 107.62 16.4649 108.253 15.3946C108.887 14.3066 109.204 13.1472 109.204 11.9164C109.204 10.1683 108.393 9.29431 106.772 9.29431Z" fill="#0A66C2"/>
<path d="M149.579 1.02676C150.219 1.02676 150.694 1.62011 150.554 2.24497L149.32 7.76786C149.105 8.7253 150.255 9.38638 150.975 8.72002L153.334 6.53695C153.519 6.36591 153.761 6.2709 154.013 6.2709H156.645C157.577 6.2709 158.002 7.4332 157.291 8.03469L153.518 11.2225C153.181 11.5074 153.071 11.9795 153.246 12.3843L155.977 18.679C156.263 19.3393 155.779 20.0769 155.059 20.0769H152.1C151.687 20.0769 151.316 19.8222 151.167 19.436L149.753 15.7609C149.51 15.1294 148.723 14.9165 148.195 15.3393L147.831 15.6303C147.654 15.7722 147.53 15.9702 147.481 16.1917L146.783 19.2962C146.68 19.7526 146.275 20.0769 145.807 20.0769H143.16C142.52 20.0769 142.045 19.484 142.184 18.8593L145.986 1.80914C146.088 1.35193 146.493 1.02676 146.962 1.02676H149.579Z" fill="#0A66C2"/>
<path d="M162.377 6.2709C163.016 6.2709 163.491 6.86223 163.354 7.48634L160.749 19.2924C160.648 19.7506 160.242 20.0769 159.773 20.0769H157.07C156.431 20.0769 155.956 19.4856 156.094 18.8615L158.698 7.05547C158.799 6.59721 159.206 6.2709 159.675 6.2709H162.377ZM163.543 1C164.185 1 164.661 1.59546 164.519 2.22108L164.19 3.67258C164.086 4.12813 163.682 4.4515 163.214 4.4515H160.515C159.873 4.4515 159.398 3.85604 159.539 3.23042L159.869 1.77892C159.972 1.32337 160.377 1 160.844 1H163.543Z" fill="#0A66C2"/>
<path d="M168.843 6.2709C169.081 6.2709 169.257 6.49369 169.202 6.72565C169.113 7.09822 169.626 7.38599 169.933 7.15617C171.053 6.31627 172.345 5.89632 173.809 5.89632C175.113 5.89632 176.157 6.22631 176.939 6.88629C177.74 7.54627 178.141 8.42029 178.141 9.50836C178.141 10.1683 178.047 10.9175 177.861 11.7559L176.19 19.2933C176.089 19.7511 175.683 20.0769 175.214 20.0769H172.46C171.819 20.0769 171.344 19.4831 171.484 18.8581L172.999 12.1037C173.073 11.8004 173.111 11.4526 173.111 11.0602C173.111 10.5429 172.952 10.1505 172.636 9.88294C172.338 9.59755 171.9 9.45485 171.322 9.45485C170.503 9.45485 169.813 9.73133 169.254 10.2843C168.696 10.8194 168.304 11.5953 168.081 12.612L166.605 19.2926C166.504 19.7507 166.098 20.0769 165.629 20.0769H162.929C162.289 20.0769 161.814 19.4842 161.953 18.8596L164.581 7.05358C164.683 6.59623 165.089 6.2709 165.557 6.2709H168.843Z" fill="#0A66C2"/>
<path d="M192.752 6.2709C193.392 6.2709 193.867 6.86429 193.728 7.48916L191.122 19.1405C190.656 21.2096 189.836 22.699 188.663 23.6087C187.508 24.5362 185.682 25 183.186 25C181.081 25 179.451 24.6254 178.296 23.8763C177.159 23.1449 176.591 22.1014 176.591 20.7458C176.591 20.5869 176.73 20.4783 176.889 20.4783H180.405C180.932 20.4783 181.324 20.9194 181.596 21.3708C181.925 21.9173 182.567 22.1906 183.521 22.1906C184.508 22.1906 185.188 21.932 185.561 21.4147C185.952 20.9153 186.278 20.1394 186.539 19.087C186.621 18.758 186.131 18.4763 185.846 18.6604C185.047 19.1767 184.086 19.4348 182.962 19.4348C181.323 19.4348 180.009 18.9353 179.022 17.9365C178.053 16.9376 177.569 15.5998 177.569 13.9231C177.569 12.5496 177.83 11.2653 178.351 10.0702C178.892 8.87514 179.711 7.88517 180.811 7.10034C181.91 6.29766 183.195 5.89632 184.667 5.89632C185.71 5.89632 186.576 6.07469 187.266 6.43144C187.557 6.58206 187.828 6.77403 188.079 7.00733C188.472 7.37258 189.218 7.24971 189.339 6.72692C189.401 6.45991 189.639 6.2709 189.913 6.2709H192.752ZM185.701 9.18729C184.583 9.18729 183.717 9.65998 183.102 10.6054C182.487 11.5329 182.18 12.5674 182.18 13.709C182.18 14.5295 182.394 15.1717 182.822 15.6355C183.27 16.0992 183.875 16.3311 184.639 16.3311C185.626 16.3311 186.455 15.8941 187.126 15.0201C187.796 14.1282 188.132 13.0223 188.132 11.7023C188.132 10.9532 187.918 10.3467 187.489 9.88294C187.079 9.41918 186.483 9.18729 185.701 9.18729Z" fill="#0A66C2"/>
<path d="M120.117 20.505C122.706 20.505 124.765 19.7023 126.293 18.097C127.048 17.3125 127.02 17.2707 127.406 16.2776C127.792 15.2844 128.924 10.84 129.315 9.85619C129.706 8.87241 129.521 9.08244 130.288 8.30435C131.853 6.699 133.921 5.89632 136.492 5.89632M120.117 20.505C118.012 20.505 116.326 19.9877 115.059 18.9532C114.049 18.1157 113.447 16.9509 113.255 15.4588M120.117 20.505H134.871C137.461 20.505 139.519 19.7023 141.047 18.097C142.593 16.4916 143.366 14.4493 143.366 11.9699C143.366 9.98997 142.742 8.48272 141.494 7.44816C140.246 6.4136 138.578 5.89632 136.492 5.89632M136.492 5.89632H121.738C119.167 5.89632 117.099 6.699 115.534 8.30435C114.838 9.01092 114.296 9.80232 113.91 10.6785M113.91 10.6785C113.939 10.9639 113.954 11.2606 113.954 11.5686C113.954 12.6745 113.796 13.7536 113.479 14.806C113.411 15.0277 113.336 15.2453 113.255 15.4588M113.91 10.6785C113.428 11.7709 113.187 12.9951 113.187 14.3512C113.187 14.7385 113.21 15.1077 113.255 15.4588M113.91 10.6785C113.773 9.36068 113.322 8.2839 112.557 7.44816C111.644 6.43144 110.396 5.92308 108.812 5.92308C108.473 5.92308 108.146 5.94697 107.831 5.99474C106.821 6.14794 105.203 5.08494 105.424 4.08711L105.832 2.24293C105.971 1.61862 105.496 1.02676 104.856 1.02676H102.181C101.712 1.02676 101.307 1.35193 101.205 1.80914L97.4033 18.8593C97.264 19.484 97.7393 20.0769 98.3793 20.0769H101.271C101.513 20.0769 101.723 19.9071 101.773 19.6698V19.6698C101.876 19.1806 102.654 19.0658 103.025 19.4008C103.821 20.1191 104.958 20.4783 106.437 20.4783C107.648 20.4783 108.738 20.2196 109.707 19.7023C110.694 19.1851 111.486 18.4983 112.082 17.6421C112.565 16.9694 112.956 16.2416 113.255 15.4588M71.7232 20.4783C73.2019 20.4783 74.4376 20.0815 75.4305 19.288C75.7066 19.0673 76.2435 19.3365 76.1684 19.6818V19.6818C76.1242 19.8849 76.2789 20.0769 76.4868 20.0769H79.8338C80.3031 20.0769 80.7092 19.7506 80.8103 19.2924L83.415 7.48634C83.5527 6.86223 83.0776 6.2709 82.4385 6.2709H79.7626C79.294 6.2709 78.8882 6.59632 78.7865 7.05376L77.3119 13.6823C77.0698 14.7168 76.6786 15.5106 76.1383 16.0635C75.5981 16.6165 74.9367 16.893 74.1543 16.893C73.6141 16.893 73.1763 16.7681 72.8409 16.5184C72.5242 16.2687 72.3659 15.9208 72.3659 15.4749C72.3659 15.1717 72.4404 14.6455 72.5895 13.8963L73.999 7.48565C74.1362 6.86172 73.6611 6.2709 73.0223 6.2709H70.2909C69.8217 6.2709 69.4156 6.59706 69.3144 7.05518L67.6434 14.6187C67.4571 15.4749 67.364 16.1973 67.364 16.786C67.364 17.8919 67.7645 18.7837 68.5655 19.4615C69.3666 20.1394 70.4192 20.4783 71.7232 20.4783ZM93.87 5.89632C92.4055 5.89632 91.1133 6.31627 89.9934 7.15617C89.687 7.38599 89.1736 7.09821 89.2625 6.72564V6.72564C89.3179 6.49369 89.142 6.2709 88.9036 6.2709H85.6181C85.1495 6.2709 84.7438 6.59623 84.642 7.05358L82.0134 18.8596C81.8744 19.4842 82.3496 20.0769 82.9895 20.0769H85.6896C86.1588 20.0769 86.5649 19.7507 86.6661 19.2926L88.1415 12.612C88.3651 11.5953 88.7563 10.8194 89.3152 10.2843C89.8741 9.73133 90.5633 9.45485 91.383 9.45485C91.9605 9.45485 92.3983 9.59755 92.6964 9.88294C93.0131 10.1505 93.1714 10.5429 93.1714 11.0602C93.1714 11.4526 93.1342 11.8004 93.0597 12.1037L91.5446 18.8581C91.4044 19.4831 91.8798 20.0769 92.5204 20.0769H95.2749C95.7439 20.0769 96.1498 19.7511 96.2513 19.2933L97.9219 11.7559C98.1082 10.9175 98.2013 10.1683 98.2013 9.50836C98.2013 8.42029 97.8008 7.54627 96.9997 6.88629C96.2173 6.22631 95.1741 5.89632 93.87 5.89632ZM106.772 9.29431C105.934 9.29431 105.226 9.58863 104.649 10.1773C104.071 10.7659 103.671 11.4348 103.447 12.1839C103.224 12.9153 103.112 13.6734 103.112 14.4582C103.112 15.243 103.326 15.8673 103.754 16.3311C104.183 16.777 104.779 17 105.543 17C106.717 17 107.62 16.4649 108.253 15.3946C108.887 14.3066 109.204 13.1472 109.204 11.9164C109.204 10.1683 108.393 9.29431 106.772 9.29431ZM173.809 5.89632C172.345 5.89632 171.053 6.31627 169.933 7.15617C169.626 7.38599 169.113 7.09822 169.202 6.72565V6.72565C169.257 6.49369 169.081 6.2709 168.843 6.2709H165.557C165.089 6.2709 164.683 6.59623 164.581 7.05358L161.953 18.8596C161.814 19.4842 162.289 20.0769 162.929 20.0769H165.629C166.098 20.0769 166.504 19.7507 166.605 19.2926L168.081 12.612C168.304 11.5953 168.696 10.8194 169.254 10.2843C169.813 9.73133 170.503 9.45485 171.322 9.45485C171.9 9.45485 172.338 9.59755 172.636 9.88294C172.952 10.1505 173.111 10.5429 173.111 11.0602C173.111 11.4526 173.073 11.8004 172.999 12.1037L171.484 18.8581C171.344 19.4831 171.819 20.0769 172.46 20.0769H175.214C175.683 20.0769 176.089 19.7511 176.19 19.2933L177.861 11.7559C178.047 10.9175 178.141 10.1683 178.141 9.50836C178.141 8.42029 177.74 7.54627 176.939 6.88629C176.157 6.22631 175.113 5.89632 173.809 5.89632ZM191.122 19.1405L193.728 7.48916C193.867 6.86429 193.392 6.2709 192.752 6.2709H189.913C189.639 6.2709 189.401 6.45991 189.339 6.72692V6.72692C189.218 7.24971 188.472 7.37258 188.079 7.00733C187.828 6.77403 187.557 6.58206 187.266 6.43144C186.576 6.07469 185.71 5.89632 184.667 5.89632C183.195 5.89632 181.91 6.29766 180.811 7.10034C179.711 7.88517 178.892 8.87514 178.351 10.0702C177.83 11.2653 177.569 12.5496 177.569 13.9231C177.569 15.5998 178.053 16.9376 179.022 17.9365C180.009 18.9353 181.323 19.4348 182.962 19.4348C184.086 19.4348 185.047 19.1767 185.846 18.6604C186.131 18.4763 186.621 18.758 186.539 19.087V19.087C186.278 20.1394 185.952 20.9153 185.561 21.4147C185.188 21.932 184.508 22.1906 183.521 22.1906C182.567 22.1906 181.925 21.9173 181.596 21.3708C181.324 20.9194 180.932 20.4783 180.405 20.4783H176.889C176.73 20.4783 176.591 20.5869 176.591 20.7458V20.7458C176.591 22.1014 177.159 23.1449 178.296 23.8763C179.451 24.6254 181.081 25 183.186 25C185.682 25 187.508 24.5362 188.663 23.6087C189.836 22.699 190.656 21.2096 191.122 19.1405ZM185.701 9.18729C184.583 9.18729 183.717 9.65998 183.102 10.6054C182.487 11.5329 182.18 12.5674 182.18 13.709C182.18 14.5295 182.394 15.1717 182.822 15.6355C183.27 16.0992 183.875 16.3311 184.639 16.3311C185.626 16.3311 186.455 15.8941 187.126 15.0201C187.796 14.1282 188.132 13.0223 188.132 11.7023C188.132 10.9532 187.918 10.3467 187.489 9.88294C187.079 9.41918 186.483 9.18729 185.701 9.18729ZM159.869 1.77892L159.539 3.23042C159.398 3.85604 159.873 4.4515 160.515 4.4515H163.214C163.682 4.4515 164.086 4.12813 164.19 3.67258L164.519 2.22108C164.661 1.59546 164.185 1 163.543 1H160.844C160.377 1 159.972 1.32337 159.869 1.77892ZM143.16 20.0769H145.807C146.275 20.0769 146.68 19.7526 146.783 19.2962L147.481 16.1917C147.53 15.9702 147.654 15.7722 147.831 15.6303L148.195 15.3393C148.723 14.9165 149.51 15.1294 149.753 15.7609L151.167 19.436C151.316 19.8222 151.687 20.0769 152.1 20.0769H155.059C155.779 20.0769 156.263 19.3393 155.977 18.679L153.246 12.3843C153.071 11.9795 153.181 11.5074 153.518 11.2225L157.291 8.03469C158.002 7.4332 157.577 6.2709 156.645 6.2709H154.013C153.761 6.2709 153.519 6.36591 153.334 6.53695L150.975 8.72002C150.255 9.38638 149.105 8.7253 149.32 7.76786L150.554 2.24497C150.694 1.62011 150.219 1.02676 149.579 1.02676H146.962C146.493 1.02676 146.088 1.35193 145.986 1.80914L142.184 18.8593C142.045 19.484 142.52 20.0769 143.16 20.0769ZM158.698 7.05547L156.094 18.8615C155.956 19.4856 156.431 20.0769 157.07 20.0769H159.773C160.242 20.0769 160.648 19.7506 160.749 19.2924L163.354 7.48634C163.491 6.86223 163.016 6.2709 162.377 6.2709H159.675C159.206 6.2709 158.799 6.59721 158.698 7.05547ZM55.8445 1.80914L52.043 18.8593C51.9037 19.484 52.379 20.0769 53.019 20.0769H56.1939C56.663 20.0769 57.0691 19.7508 57.1703 19.2928L58.4444 13.53C58.5456 13.0719 58.9517 12.7458 59.4208 12.7458H66.1436C66.6119 12.7458 67.0175 12.4208 67.1196 11.9637L67.5393 10.0841C67.6788 9.45936 67.2035 8.86622 66.5633 8.86622H60.7365C60.0948 8.86622 59.6192 8.27052 59.7613 7.64481L60.1455 5.9525C60.2489 5.49711 60.6537 5.17391 61.1207 5.17391H69.0996C69.5707 5.17391 69.9779 4.84516 70.0772 4.38469L70.5401 2.23753C70.6744 1.61468 70.1998 1.02676 69.5626 1.02676H56.8205C56.3521 1.02676 55.9464 1.35193 55.8445 1.80914Z" stroke="#0A66C2"/>
</svg>
