<svg width="16" height="16" viewBox="0 0 16 16" fill="none" xmlns="http://www.w3.org/2000/svg">
<g clip-path="url(#clip0_362_5243)">
<path d="M0.666992 2.66667V6.66667M0.666992 6.66667H4.66699M0.666992 6.66667L3.76033 3.76001C4.68093 2.84095 5.87529 2.24599 7.16344 2.06475C8.45159 1.88352 9.76375 2.12583 10.9022 2.75518C12.0407 3.38454 12.9438 4.36684 13.4754 5.55407C14.0071 6.74131 14.1385 8.06917 13.8498 9.33758C13.5612 10.606 12.8681 11.7462 11.8751 12.5865C10.882 13.4268 9.64282 13.9216 8.34414 13.9963C7.04545 14.0711 5.75764 13.7217 4.67476 13.0009C3.59188 12.2801 2.77259 11.2269 2.34033 10" stroke="#0A66C2" stroke-width="2" stroke-linecap="round" stroke-linejoin="round"/>
</g>
<defs>
<clipPath id="clip0_362_5243">
<rect width="16" height="16" fill="white"/>
</clipPath>
</defs>
</svg>
