<svg width="32" height="33" viewBox="0 0 32 33" fill="none" xmlns="http://www.w3.org/2000/svg">
<g clip-path="url(#clip0_362_3285)">
<path fill-rule="evenodd" clip-rule="evenodd" d="M15.6268 29.8624C22.9125 29.8624 28.984 23.9339 28.984 16.7196C28.984 13.1482 27.484 9.86244 24.984 7.36244C22.484 4.86244 19.1982 3.5053 15.6982 3.5053C8.41253 3.5053 2.48396 9.43387 2.48396 16.6482C2.48396 19.1482 3.19824 21.5767 4.48396 23.7196L4.8411 24.2196L3.48396 29.0767L8.48396 27.7196L8.91253 28.0053C10.984 29.2196 13.2697 29.8624 15.6268 29.8624ZM23.6268 20.5053C23.5554 20.291 23.2697 20.2196 22.9125 20.0053C22.484 19.791 20.5554 18.8624 20.1982 18.7196C19.8411 18.5767 19.5554 18.5053 19.2697 18.9339C19.0554 19.291 18.2697 20.2196 18.0554 20.5053C17.7697 20.7196 17.5554 20.791 17.1982 20.5767C14.8411 19.4339 13.3411 18.5053 11.7697 15.8624C11.3411 15.1482 12.1982 15.2196 12.9125 13.7196C13.0554 13.4339 12.984 13.2196 12.9125 13.0053C12.8411 12.791 11.984 10.8624 11.6982 10.0767C11.3411 9.29102 11.0554 9.36244 10.7697 9.36244H10.0554C9.76967 9.36244 9.3411 9.43387 8.98396 9.86244C8.62681 10.291 7.62681 11.2196 7.62681 13.1482C7.62681 15.1482 8.98396 17.0053 9.19824 17.291C9.41253 17.5053 11.984 21.5053 15.984 23.2196C18.484 24.3624 19.484 24.4339 20.7697 24.2196C21.484 24.1482 23.0554 23.291 23.4125 22.3624C23.7697 21.4339 23.7697 20.6482 23.6268 20.5053Z" fill="white"/>
<path fill-rule="evenodd" clip-rule="evenodd" d="M31.6982 16.7196C31.6982 12.4339 29.8411 8.5053 26.8411 5.5053C23.9125 2.5053 19.9125 0.791016 15.6268 0.791016C6.91253 0.791016 -0.230329 7.93387 -0.230329 16.6482C-0.230329 19.5053 0.555385 22.2196 1.91253 24.5767L-0.301758 32.791L8.05538 30.6482C10.4125 31.8624 12.984 32.5767 15.6268 32.5767C24.4125 32.5767 31.6982 25.4339 31.6982 16.7196ZM28.984 16.7196C28.984 23.9339 22.9125 29.8624 15.6268 29.8624C13.2697 29.8624 10.984 29.2196 8.91253 28.0053L8.48396 27.7196L3.48396 29.0767L4.8411 24.2196L4.48396 23.7196C3.19824 21.5767 2.48396 19.1482 2.48396 16.6482C2.48396 9.43387 8.41253 3.5053 15.6982 3.5053C19.1982 3.5053 22.484 4.86244 24.984 7.36244C27.484 9.86244 28.984 13.1482 28.984 16.7196Z" fill="white"/>
</g>
<defs>
<clipPath id="clip0_362_3285">
<rect width="32" height="32" fill="white" transform="translate(0 0.457031)"/>
</clipPath>
</defs>
</svg>
