<svg width="33" height="33" viewBox="0 0 33 33" fill="none" xmlns="http://www.w3.org/2000/svg">
<path d="M16.1953 0.791016C24.9695 0.791016 32.1953 8.01682 32.1953 16.791C32.1953 25.6297 24.9695 32.791 16.1953 32.791C7.3566 32.791 0.195312 25.6297 0.195312 16.791C0.195312 8.01682 7.3566 0.791016 16.1953 0.791016ZM23.5501 11.6942C23.6147 11.5007 23.6147 11.3071 23.5501 11.0491C23.5501 10.92 23.4211 10.7265 23.3566 10.662C23.1631 10.4684 22.8405 10.4684 22.7114 10.4684C22.1308 10.4684 21.1631 10.791 16.7114 12.662C15.1631 13.3071 12.0663 14.5975 7.42112 16.662C6.64693 16.9846 6.25983 17.2426 6.19531 17.5652C6.1308 18.0813 6.96951 18.2749 7.93725 18.5975C8.77596 18.8555 9.87273 19.1781 10.4534 19.1781C10.9695 19.1781 11.5502 18.9846 12.1953 18.533C16.5179 15.5652 18.776 14.0813 18.905 14.0813C19.034 14.0813 19.1631 14.0168 19.2276 14.0813C19.3566 14.2104 19.3566 14.3394 19.2921 14.4039C19.2276 14.7265 15.1631 18.4684 14.905 18.7265C14.0018 19.6297 12.9695 20.2104 14.5824 21.2426C15.9372 22.1459 16.7114 22.7265 18.1308 23.6297C19.034 24.2104 19.7437 24.92 20.6469 24.8555C21.0985 24.791 21.5502 24.4039 21.7437 23.1781C22.3243 20.4039 23.3566 14.2104 23.5501 11.6942Z" fill="white"/>
</svg>
