<svg width="12" height="12" viewBox="0 0 12 12" fill="none" xmlns="http://www.w3.org/2000/svg">
<path d="M6.00033 6C5.26699 6 4.63921 5.73889 4.11699 5.21667C3.59477 4.69444 3.33366 4.06667 3.33366 3.33333C3.33366 2.6 3.59477 1.97222 4.11699 1.45C4.63921 0.927778 5.26699 0.666667 6.00033 0.666667C6.73366 0.666667 7.36144 0.927778 7.88366 1.45C8.40588 1.97222 8.66699 2.6 8.66699 3.33333C8.66699 4.06667 8.40588 4.69444 7.88366 5.21667C7.36144 5.73889 6.73366 6 6.00033 6ZM0.666992 11.3333V9.46667C0.666992 9.08889 0.764214 8.74167 0.958659 8.425C1.1531 8.10833 1.41144 7.86667 1.73366 7.7C2.42255 7.35556 3.12255 7.09722 3.83366 6.925C4.54477 6.75278 5.26699 6.66667 6.00033 6.66667C6.73366 6.66667 7.45588 6.75278 8.16699 6.925C8.8781 7.09722 9.5781 7.35556 10.267 7.7C10.5892 7.86667 10.8475 8.10833 11.042 8.425C11.2364 8.74167 11.3337 9.08889 11.3337 9.46667V11.3333H0.666992ZM2.00033 10H10.0003V9.46667C10.0003 9.34444 9.96977 9.23333 9.90866 9.13333C9.84755 9.03333 9.76699 8.95556 9.66699 8.9C9.06699 8.6 8.46144 8.375 7.85033 8.225C7.23921 8.075 6.62255 8 6.00033 8C5.3781 8 4.76144 8.075 4.15033 8.225C3.53921 8.375 2.93366 8.6 2.33366 8.9C2.23366 8.95556 2.1531 9.03333 2.09199 9.13333C2.03088 9.23333 2.00033 9.34444 2.00033 9.46667V10ZM6.00033 4.66667C6.36699 4.66667 6.68088 4.53611 6.94199 4.275C7.2031 4.01389 7.33366 3.7 7.33366 3.33333C7.33366 2.96667 7.2031 2.65278 6.94199 2.39167C6.68088 2.13056 6.36699 2 6.00033 2C5.63366 2 5.31977 2.13056 5.05866 2.39167C4.79755 2.65278 4.66699 2.96667 4.66699 3.33333C4.66699 3.7 4.79755 4.01389 5.05866 4.275C5.31977 4.53611 5.63366 4.66667 6.00033 4.66667Z" fill="currentColor"/>
</svg>
