<svg width="32" height="33" viewBox="0 0 32 33" fill="none" xmlns="http://www.w3.org/2000/svg">
<path fill-rule="evenodd" clip-rule="evenodd" d="M2.24942 2.70645C0 4.95588 0 8.57626 0 15.817V17.097C0 24.3378 0 27.9582 2.24942 30.2076C4.49885 32.457 8.11923 32.457 15.36 32.457H16.64C23.8808 32.457 27.5012 32.457 29.7506 30.2076C32 27.9582 32 24.3378 32 17.097V15.817C32 8.57626 32 4.95588 29.7506 2.70645C27.5012 0.457031 23.8808 0.457031 16.64 0.457031H15.36C8.11923 0.457031 4.49885 0.457031 2.24942 2.70645ZM5.34896 10.1914C5.52059 18.5114 9.63937 23.5114 16.8605 23.5114H17.2698V18.7514C19.9233 19.0181 21.9297 20.9781 22.735 23.5114H26.4843C25.4546 19.7247 22.7482 17.6314 21.0584 16.8314C22.7482 15.8447 25.1244 13.4447 25.6921 10.1914H22.2861C21.5468 12.8314 19.3556 15.2314 17.2698 15.458V10.1914H13.8637V19.4181C11.7516 18.8847 9.08494 16.2981 8.96613 10.1914H5.34896Z" fill="white"/>
</svg>
